<svg width="128" height="184" viewBox="0 0 128 184" fill="none" xmlns="http://www.w3.org/2000/svg">
<path d="M-2.4482 0C-3.07565 0 -3.68904 0.186049 -4.21074 0.534633C-4.73244 0.883217 -5.13912 1.37866 -5.37923 1.95833C-5.61934 2.538 -5.6821 3.17588 -5.55969 3.79126C-5.43728 4.40663 -5.13513 4.97189 -4.69146 5.41555C-4.24779 5.85921 -3.68256 6.16136 -3.06717 6.28377C-2.45178 6.40617 -1.81383 6.34335 -1.23415 6.10324C-0.654468 5.86314 -0.159052 5.4565 0.189538 4.93481C0.538127 4.41312 0.724211 3.7998 0.724211 3.17236C0.724211 2.331 0.389994 1.52408 -0.204949 0.929145C-0.799892 0.334212 -1.60683 0 -2.4482 0Z" fill="#313131"/>
<path d="M-2.4482 25.3793C-3.07565 25.3793 -3.68904 25.5654 -4.21074 25.9139C-4.73244 26.2625 -5.13912 26.758 -5.37923 27.3376C-5.61934 27.9173 -5.6821 28.5552 -5.55969 29.1706C-5.43728 29.7859 -5.13513 30.3512 -4.69146 30.7949C-4.24779 31.2385 -3.68256 31.5407 -3.06717 31.6631C-2.45178 31.7855 -1.81383 31.7227 -1.23415 31.4826C-0.654468 31.2424 -0.159052 30.8358 0.189538 30.3141C0.538127 29.7924 0.724211 29.1791 0.724211 28.5517C0.724211 27.7103 0.389994 26.9034 -0.204949 26.3085C-0.799892 25.7135 -1.60683 25.3793 -2.4482 25.3793Z" fill="#313131"/>
<path d="M-2.4482 50.7586C-3.07565 50.7586 -3.68904 50.9447 -4.21074 51.2933C-4.73244 51.6419 -5.13912 52.1373 -5.37923 52.717C-5.61934 53.2967 -5.6821 53.9346 -5.55969 54.55C-5.43728 55.1654 -5.13513 55.7307 -4.69146 56.1744C-4.24779 56.6181 -3.68256 56.9202 -3.06717 57.0426C-2.45178 57.165 -1.81383 57.1022 -1.23415 56.8621C-0.654468 56.622 -0.159052 56.2153 0.189538 55.6936C0.538127 55.1719 0.724211 54.5586 0.724211 53.9311C0.724211 53.0897 0.389994 52.2828 -0.204949 51.6878C-0.799892 51.0928 -1.60683 50.7586 -2.4482 50.7586Z" fill="#313131"/>
<path d="M-2.4482 76.1379C-3.07565 76.1379 -3.68904 76.324 -4.21074 76.6726C-4.73244 77.0211 -5.13912 77.5166 -5.37923 78.0963C-5.61934 78.6759 -5.6821 79.3138 -5.55969 79.9292C-5.43728 80.5446 -5.13513 81.1098 -4.69146 81.5535C-4.24779 81.9971 -3.68256 82.2993 -3.06717 82.4217C-2.45178 82.5441 -1.81383 82.4813 -1.23415 82.2412C-0.654468 82.0011 -0.159052 81.5944 0.189538 81.0727C0.538127 80.551 0.724211 79.9377 0.724211 79.3103C0.724211 78.4689 0.389994 77.662 -0.204949 77.0671C-0.799892 76.4721 -1.60683 76.1379 -2.4482 76.1379Z" fill="#313131"/>
<path d="M-2.4482 101.517C-3.07565 101.517 -3.68904 101.703 -4.21074 102.052C-4.73244 102.4 -5.13912 102.896 -5.37923 103.476C-5.61934 104.055 -5.6821 104.693 -5.55969 105.308C-5.43728 105.924 -5.13513 106.489 -4.69146 106.933C-4.24779 107.376 -3.68256 107.679 -3.06717 107.801C-2.45178 107.923 -1.81383 107.861 -1.23415 107.62C-0.654468 107.38 -0.159052 106.974 0.189538 106.452C0.538127 105.93 0.724211 105.317 0.724211 104.69C0.724211 103.848 0.389994 103.041 -0.204949 102.446C-0.799892 101.851 -1.60683 101.517 -2.4482 101.517Z" fill="#313131"/>
<path d="M-2.4482 126.897C-3.07565 126.897 -3.68904 127.083 -4.21074 127.431C-4.73244 127.78 -5.13912 128.275 -5.37923 128.855C-5.61934 129.435 -5.6821 130.073 -5.55969 130.688C-5.43728 131.303 -5.13513 131.869 -4.69146 132.312C-4.24779 132.756 -3.68256 133.058 -3.06717 133.181C-2.45178 133.303 -1.81383 133.24 -1.23415 133C-0.654468 132.76 -0.159052 132.353 0.189538 131.832C0.538127 131.31 0.724211 130.696 0.724211 130.069C0.724211 129.228 0.389994 128.421 -0.204949 127.826C-0.799892 127.231 -1.60683 126.897 -2.4482 126.897Z" fill="#313131"/>
<path d="M-2.4482 152.276C-3.07565 152.276 -3.68904 152.462 -4.21074 152.81C-4.73244 153.159 -5.13912 153.655 -5.37923 154.234C-5.61934 154.814 -5.6821 155.452 -5.55969 156.067C-5.43728 156.682 -5.13513 157.248 -4.69146 157.691C-4.24779 158.135 -3.68256 158.437 -3.06717 158.56C-2.45178 158.682 -1.81383 158.619 -1.23415 158.379C-0.654468 158.139 -0.159052 157.732 0.189538 157.211C0.538127 156.689 0.724211 156.076 0.724211 155.448C0.724211 154.607 0.389994 153.8 -0.204949 153.205C-0.799892 152.61 -1.60683 152.276 -2.4482 152.276Z" fill="#313131"/>
<path d="M-2.4482 177.655C-3.07565 177.655 -3.68904 177.841 -4.21074 178.19C-4.73244 178.538 -5.13912 179.034 -5.37923 179.614C-5.61934 180.193 -5.6821 180.831 -5.55969 181.447C-5.43728 182.062 -5.13513 182.627 -4.69146 183.071C-4.24779 183.514 -3.68256 183.817 -3.06717 183.939C-2.45178 184.061 -1.81383 183.999 -1.23415 183.759C-0.654468 183.518 -0.159052 183.112 0.189538 182.59C0.538127 182.068 0.724211 181.455 0.724211 180.828C0.724211 179.986 0.389994 179.179 -0.204949 178.584C-0.799892 177.989 -1.60683 177.655 -2.4482 177.655Z" fill="#313131"/>
<path d="M22.9311 0C22.3036 0 21.6902 0.186049 21.1685 0.534633C20.6468 0.883217 20.2402 1.37866 20 1.95833C19.7599 2.538 19.6972 3.17588 19.8196 3.79126C19.942 4.40663 20.2441 4.97189 20.6878 5.41555C21.1315 5.85921 21.6967 6.16136 22.3121 6.28377C22.9275 6.40617 23.5654 6.34335 24.1451 6.10324C24.7248 5.86314 25.2202 5.4565 25.5688 4.93481C25.9174 4.41312 26.1035 3.7998 26.1035 3.17236C26.1035 2.331 25.7693 1.52408 25.1743 0.929145C24.5794 0.334212 23.7724 0 22.9311 0Z" fill="#313131"/>
<path d="M22.9311 25.3793C22.3036 25.3793 21.6902 25.5654 21.1685 25.9139C20.6468 26.2625 20.2402 26.758 20 27.3376C19.7599 27.9173 19.6972 28.5552 19.8196 29.1706C19.942 29.7859 20.2441 30.3512 20.6878 30.7949C21.1315 31.2385 21.6967 31.5407 22.3121 31.6631C22.9275 31.7855 23.5654 31.7227 24.1451 31.4826C24.7248 31.2424 25.2202 30.8358 25.5688 30.3141C25.9174 29.7924 26.1035 29.1791 26.1035 28.5517C26.1035 27.7103 25.7693 26.9034 25.1743 26.3085C24.5794 25.7135 23.7724 25.3793 22.9311 25.3793Z" fill="#313131"/>
<path d="M22.9311 50.7586C22.3036 50.7586 21.6902 50.9447 21.1685 51.2933C20.6468 51.6419 20.2402 52.1373 20 52.717C19.7599 53.2967 19.6972 53.9346 19.8196 54.55C19.942 55.1654 20.2441 55.7307 20.6878 56.1744C21.1315 56.6181 21.6967 56.9202 22.3121 57.0426C22.9275 57.165 23.5654 57.1022 24.1451 56.8621C24.7248 56.622 25.2202 56.2153 25.5688 55.6936C25.9174 55.1719 26.1035 54.5586 26.1035 53.9311C26.1035 53.0897 25.7693 52.2828 25.1743 51.6878C24.5794 51.0928 23.7724 50.7586 22.9311 50.7586Z" fill="#313131"/>
<path d="M22.9311 76.1379C22.3036 76.1379 21.6902 76.324 21.1685 76.6726C20.6468 77.0211 20.2402 77.5166 20 78.0963C19.7599 78.6759 19.6972 79.3138 19.8196 79.9292C19.942 80.5446 20.2441 81.1098 20.6878 81.5535C21.1315 81.9971 21.6967 82.2993 22.3121 82.4217C22.9275 82.5441 23.5654 82.4813 24.1451 82.2412C24.7248 82.0011 25.2202 81.5944 25.5688 81.0727C25.9174 80.551 26.1035 79.9377 26.1035 79.3103C26.1035 78.4689 25.7693 77.662 25.1743 77.0671C24.5794 76.4721 23.7724 76.1379 22.9311 76.1379Z" fill="#313131"/>
<path d="M22.9311 101.517C22.3036 101.517 21.6902 101.703 21.1685 102.052C20.6468 102.4 20.2402 102.896 20 103.476C19.7599 104.055 19.6972 104.693 19.8196 105.308C19.942 105.924 20.2441 106.489 20.6878 106.933C21.1315 107.376 21.6967 107.679 22.3121 107.801C22.9275 107.923 23.5654 107.861 24.1451 107.62C24.7248 107.38 25.2202 106.974 25.5688 106.452C25.9174 105.93 26.1035 105.317 26.1035 104.69C26.1035 103.848 25.7693 103.041 25.1743 102.446C24.5794 101.851 23.7724 101.517 22.9311 101.517Z" fill="#313131"/>
<path d="M22.9311 126.897C22.3036 126.897 21.6902 127.083 21.1685 127.431C20.6468 127.78 20.2402 128.275 20 128.855C19.7599 129.435 19.6972 130.073 19.8196 130.688C19.942 131.303 20.2441 131.869 20.6878 132.312C21.1315 132.756 21.6967 133.058 22.3121 133.181C22.9275 133.303 23.5654 133.24 24.1451 133C24.7248 132.76 25.2202 132.353 25.5688 131.832C25.9174 131.31 26.1035 130.696 26.1035 130.069C26.1035 129.228 25.7693 128.421 25.1743 127.826C24.5794 127.231 23.7724 126.897 22.9311 126.897Z" fill="#313131"/>
<path d="M22.9311 152.276C22.3036 152.276 21.6902 152.462 21.1685 152.81C20.6468 153.159 20.2402 153.655 20 154.234C19.7599 154.814 19.6972 155.452 19.8196 156.067C19.942 156.682 20.2441 157.248 20.6878 157.691C21.1315 158.135 21.6967 158.437 22.3121 158.56C22.9275 158.682 23.5654 158.619 24.1451 158.379C24.7248 158.139 25.2202 157.732 25.5688 157.211C25.9174 156.689 26.1035 156.076 26.1035 155.448C26.1035 154.607 25.7693 153.8 25.1743 153.205C24.5794 152.61 23.7724 152.276 22.9311 152.276Z" fill="#313131"/>
<path d="M22.9311 177.655C22.3036 177.655 21.6902 177.841 21.1685 178.19C20.6468 178.538 20.2402 179.034 20 179.614C19.7599 180.193 19.6972 180.831 19.8196 181.447C19.942 182.062 20.2441 182.627 20.6878 183.071C21.1315 183.514 21.6967 183.817 22.3121 183.939C22.9275 184.061 23.5654 183.999 24.1451 183.759C24.7248 183.518 25.2202 183.112 25.5688 182.59C25.9174 182.068 26.1035 181.455 26.1035 180.828C26.1035 179.986 25.7693 179.179 25.1743 178.584C24.5794 177.989 23.7724 177.655 22.9311 177.655Z" fill="#313131"/>
<path d="M48.3104 0C47.683 0 47.0696 0.186049 46.5479 0.534633C46.0262 0.883217 45.6195 1.37866 45.3794 1.95833C45.1393 2.538 45.0765 3.17588 45.1989 3.79126C45.3213 4.40663 45.6235 4.97189 46.0671 5.41555C46.5108 5.85921 47.076 6.16136 47.6914 6.28377C48.3068 6.40617 48.9448 6.34335 49.5245 6.10324C50.1041 5.86314 50.5996 5.4565 50.9481 4.93481C51.2967 4.41312 51.4828 3.7998 51.4828 3.17236C51.4828 2.331 51.1486 1.52408 50.5537 0.929145C49.9587 0.334212 49.1518 0 48.3104 0Z" fill="#313131"/>
<path d="M48.3104 25.3793C47.683 25.3793 47.0696 25.5654 46.5479 25.9139C46.0262 26.2625 45.6195 26.758 45.3794 27.3376C45.1393 27.9173 45.0765 28.5552 45.1989 29.1706C45.3213 29.7859 45.6235 30.3512 46.0671 30.7949C46.5108 31.2385 47.076 31.5407 47.6914 31.6631C48.3068 31.7855 48.9448 31.7227 49.5245 31.4826C50.1041 31.2424 50.5996 30.8358 50.9481 30.3141C51.2967 29.7924 51.4828 29.1791 51.4828 28.5517C51.4828 27.7103 51.1486 26.9034 50.5537 26.3085C49.9587 25.7135 49.1518 25.3793 48.3104 25.3793Z" fill="#313131"/>
<path d="M48.3104 50.7586C47.683 50.7586 47.0696 50.9447 46.5479 51.2933C46.0262 51.6419 45.6195 52.1373 45.3794 52.717C45.1393 53.2967 45.0765 53.9346 45.1989 54.55C45.3213 55.1654 45.6235 55.7307 46.0671 56.1744C46.5108 56.6181 47.076 56.9202 47.6914 57.0426C48.3068 57.165 48.9448 57.1022 49.5245 56.8621C50.1041 56.622 50.5996 56.2153 50.9481 55.6936C51.2967 55.1719 51.4828 54.5586 51.4828 53.9311C51.4828 53.0897 51.1486 52.2828 50.5537 51.6878C49.9587 51.0928 49.1518 50.7586 48.3104 50.7586Z" fill="#313131"/>
<path d="M48.3104 76.1379C47.683 76.1379 47.0696 76.324 46.5479 76.6726C46.0262 77.0211 45.6195 77.5166 45.3794 78.0963C45.1393 78.6759 45.0765 79.3138 45.1989 79.9292C45.3213 80.5446 45.6235 81.1098 46.0671 81.5535C46.5108 81.9971 47.076 82.2993 47.6914 82.4217C48.3068 82.5441 48.9448 82.4813 49.5245 82.2412C50.1041 82.0011 50.5996 81.5944 50.9481 81.0727C51.2967 80.551 51.4828 79.9377 51.4828 79.3103C51.4828 78.4689 51.1486 77.662 50.5537 77.0671C49.9587 76.4721 49.1518 76.1379 48.3104 76.1379Z" fill="#313131"/>
<path d="M48.3104 101.517C47.683 101.517 47.0696 101.703 46.5479 102.052C46.0262 102.4 45.6195 102.896 45.3794 103.476C45.1393 104.055 45.0765 104.693 45.1989 105.308C45.3213 105.924 45.6235 106.489 46.0671 106.933C46.5108 107.376 47.076 107.679 47.6914 107.801C48.3068 107.923 48.9448 107.861 49.5245 107.62C50.1041 107.38 50.5996 106.974 50.9481 106.452C51.2967 105.93 51.4828 105.317 51.4828 104.69C51.4828 103.848 51.1486 103.041 50.5537 102.446C49.9587 101.851 49.1518 101.517 48.3104 101.517Z" fill="#313131"/>
<path d="M48.3104 126.897C47.683 126.897 47.0696 127.083 46.5479 127.431C46.0262 127.78 45.6195 128.275 45.3794 128.855C45.1393 129.435 45.0765 130.073 45.1989 130.688C45.3213 131.303 45.6235 131.869 46.0671 132.312C46.5108 132.756 47.076 133.058 47.6914 133.181C48.3068 133.303 48.9448 133.24 49.5245 133C50.1041 132.76 50.5996 132.353 50.9481 131.832C51.2967 131.31 51.4828 130.696 51.4828 130.069C51.4828 129.228 51.1486 128.421 50.5537 127.826C49.9587 127.231 49.1518 126.897 48.3104 126.897Z" fill="#313131"/>
<path d="M48.3104 152.276C47.683 152.276 47.0696 152.462 46.5479 152.81C46.0262 153.159 45.6195 153.655 45.3794 154.234C45.1393 154.814 45.0765 155.452 45.1989 156.067C45.3213 156.682 45.6235 157.248 46.0671 157.691C46.5108 158.135 47.076 158.437 47.6914 158.56C48.3068 158.682 48.9448 158.619 49.5245 158.379C50.1041 158.139 50.5996 157.732 50.9481 157.211C51.2967 156.689 51.4828 156.076 51.4828 155.448C51.4828 154.607 51.1486 153.8 50.5537 153.205C49.9587 152.61 49.1518 152.276 48.3104 152.276Z" fill="#313131"/>
<path d="M48.3104 177.655C47.683 177.655 47.0696 177.841 46.5479 178.19C46.0262 178.538 45.6195 179.034 45.3794 179.614C45.1393 180.193 45.0765 180.831 45.1989 181.447C45.3213 182.062 45.6235 182.627 46.0671 183.071C46.5108 183.514 47.076 183.817 47.6914 183.939C48.3068 184.061 48.9448 183.999 49.5245 183.759C50.1041 183.518 50.5996 183.112 50.9481 182.59C51.2967 182.068 51.4828 181.455 51.4828 180.828C51.4828 179.986 51.1486 179.179 50.5537 178.584C49.9587 177.989 49.1518 177.655 48.3104 177.655Z" fill="#313131"/>
<path d="M73.6897 0C73.0622 0 72.4488 0.186049 71.9271 0.534633C71.4054 0.883217 70.9988 1.37866 70.7586 1.95833C70.5185 2.538 70.4558 3.17588 70.5782 3.79126C70.7006 4.40663 71.0027 4.97189 71.4464 5.41555C71.8901 5.85921 72.4553 6.16136 73.0707 6.28377C73.6861 6.40617 74.324 6.34335 74.9037 6.10324C75.4834 5.86314 75.9788 5.4565 76.3274 4.93481C76.676 4.41312 76.8621 3.7998 76.8621 3.17236C76.8621 2.331 76.5279 1.52408 75.9329 0.929145C75.338 0.334212 74.5311 0 73.6897 0Z" fill="#313131"/>
<path d="M73.6897 25.3793C73.0622 25.3793 72.4488 25.5654 71.9271 25.9139C71.4054 26.2625 70.9988 26.758 70.7586 27.3376C70.5185 27.9173 70.4558 28.5552 70.5782 29.1706C70.7006 29.7859 71.0027 30.3512 71.4464 30.7949C71.8901 31.2385 72.4553 31.5407 73.0707 31.6631C73.6861 31.7855 74.324 31.7227 74.9037 31.4826C75.4834 31.2424 75.9788 30.8358 76.3274 30.3141C76.676 29.7924 76.8621 29.1791 76.8621 28.5517C76.8621 27.7103 76.5279 26.9034 75.9329 26.3085C75.338 25.7135 74.5311 25.3793 73.6897 25.3793Z" fill="#313131"/>
<path d="M73.6897 50.7586C73.0622 50.7586 72.4488 50.9447 71.9271 51.2933C71.4054 51.6419 70.9988 52.1373 70.7586 52.717C70.5185 53.2967 70.4558 53.9346 70.5782 54.55C70.7006 55.1654 71.0027 55.7307 71.4464 56.1744C71.8901 56.6181 72.4553 56.9202 73.0707 57.0426C73.6861 57.165 74.324 57.1022 74.9037 56.8621C75.4834 56.622 75.9788 56.2153 76.3274 55.6936C76.676 55.1719 76.8621 54.5586 76.8621 53.9311C76.8621 53.0897 76.5279 52.2828 75.9329 51.6878C75.338 51.0928 74.5311 50.7586 73.6897 50.7586Z" fill="#313131"/>
<path d="M73.6897 76.1379C73.0622 76.1379 72.4488 76.324 71.9271 76.6726C71.4054 77.0211 70.9988 77.5166 70.7586 78.0963C70.5185 78.6759 70.4558 79.3138 70.5782 79.9292C70.7006 80.5446 71.0027 81.1098 71.4464 81.5535C71.8901 81.9971 72.4553 82.2993 73.0707 82.4217C73.6861 82.5441 74.324 82.4813 74.9037 82.2412C75.4834 82.0011 75.9788 81.5944 76.3274 81.0727C76.676 80.551 76.8621 79.9377 76.8621 79.3103C76.8621 78.4689 76.5279 77.662 75.9329 77.0671C75.338 76.4721 74.5311 76.1379 73.6897 76.1379Z" fill="#313131"/>
<path d="M73.6897 101.517C73.0622 101.517 72.4488 101.703 71.9271 102.052C71.4054 102.4 70.9988 102.896 70.7586 103.476C70.5185 104.055 70.4558 104.693 70.5782 105.308C70.7006 105.924 71.0027 106.489 71.4464 106.933C71.8901 107.376 72.4553 107.679 73.0707 107.801C73.6861 107.923 74.324 107.861 74.9037 107.62C75.4834 107.38 75.9788 106.974 76.3274 106.452C76.676 105.93 76.8621 105.317 76.8621 104.69C76.8621 103.848 76.5279 103.041 75.9329 102.446C75.338 101.851 74.5311 101.517 73.6897 101.517Z" fill="#313131"/>
<path d="M73.6897 126.897C73.0622 126.897 72.4488 127.083 71.9271 127.431C71.4054 127.78 70.9988 128.275 70.7586 128.855C70.5185 129.435 70.4558 130.073 70.5782 130.688C70.7006 131.303 71.0027 131.869 71.4464 132.312C71.8901 132.756 72.4553 133.058 73.0707 133.181C73.6861 133.303 74.324 133.24 74.9037 133C75.4834 132.76 75.9788 132.353 76.3274 131.832C76.676 131.31 76.8621 130.696 76.8621 130.069C76.8621 129.228 76.5279 128.421 75.9329 127.826C75.338 127.231 74.5311 126.897 73.6897 126.897Z" fill="#313131"/>
<path d="M73.6897 152.276C73.0622 152.276 72.4488 152.462 71.9271 152.81C71.4054 153.159 70.9988 153.655 70.7586 154.234C70.5185 154.814 70.4558 155.452 70.5782 156.067C70.7006 156.682 71.0027 157.248 71.4464 157.691C71.8901 158.135 72.4553 158.437 73.0707 158.56C73.6861 158.682 74.324 158.619 74.9037 158.379C75.4834 158.139 75.9788 157.732 76.3274 157.211C76.676 156.689 76.8621 156.076 76.8621 155.448C76.8621 154.607 76.5279 153.8 75.9329 153.205C75.338 152.61 74.5311 152.276 73.6897 152.276Z" fill="#313131"/>
<path d="M73.6897 177.655C73.0622 177.655 72.4488 177.841 71.9271 178.19C71.4054 178.538 70.9988 179.034 70.7586 179.614C70.5185 180.193 70.4558 180.831 70.5782 181.447C70.7006 182.062 71.0027 182.627 71.4464 183.071C71.8901 183.514 72.4553 183.817 73.0707 183.939C73.6861 184.061 74.324 183.999 74.9037 183.759C75.4834 183.518 75.9788 183.112 76.3274 182.59C76.676 182.068 76.8621 181.455 76.8621 180.828C76.8621 179.986 76.5279 179.179 75.9329 178.584C75.338 177.989 74.5311 177.655 73.6897 177.655Z" fill="#313131"/>
<path d="M99.069 0C98.4416 0 97.8282 0.186049 97.3065 0.534633C96.7848 0.883217 96.3781 1.37866 96.138 1.95833C95.8979 2.538 95.8351 3.17588 95.9575 3.79126C96.0799 4.40663 96.3821 4.97189 96.8258 5.41555C97.2694 5.85921 97.8347 6.16136 98.45 6.28377C99.0654 6.40617 99.7034 6.34335 100.283 6.10324C100.863 5.86314 101.358 5.4565 101.707 4.93481C102.055 4.41312 102.241 3.7998 102.241 3.17236C102.241 2.331 101.907 1.52408 101.312 0.929145C100.717 0.334212 99.9104 0 99.069 0Z" fill="#313131"/>
<path d="M99.069 25.3793C98.4416 25.3793 97.8282 25.5654 97.3065 25.9139C96.7848 26.2625 96.3781 26.758 96.138 27.3376C95.8979 27.9173 95.8351 28.5552 95.9575 29.1706C96.0799 29.7859 96.3821 30.3512 96.8258 30.7949C97.2694 31.2385 97.8347 31.5407 98.45 31.6631C99.0654 31.7855 99.7034 31.7227 100.283 31.4826C100.863 31.2424 101.358 30.8358 101.707 30.3141C102.055 29.7924 102.241 29.1791 102.241 28.5517C102.241 27.7103 101.907 26.9034 101.312 26.3085C100.717 25.7135 99.9104 25.3793 99.069 25.3793Z" fill="#313131"/>
<path d="M99.069 50.7586C98.4416 50.7586 97.8282 50.9447 97.3065 51.2933C96.7848 51.6419 96.3781 52.1373 96.138 52.717C95.8979 53.2967 95.8351 53.9346 95.9575 54.55C96.0799 55.1654 96.3821 55.7307 96.8258 56.1744C97.2694 56.6181 97.8347 56.9202 98.45 57.0426C99.0654 57.165 99.7034 57.1022 100.283 56.8621C100.863 56.622 101.358 56.2153 101.707 55.6936C102.055 55.1719 102.241 54.5586 102.241 53.9311C102.241 53.0897 101.907 52.2828 101.312 51.6878C100.717 51.0928 99.9104 50.7586 99.069 50.7586Z" fill="#313131"/>
<path d="M99.069 76.1379C98.4416 76.1379 97.8282 76.324 97.3065 76.6726C96.7848 77.0211 96.3781 77.5166 96.138 78.0963C95.8979 78.6759 95.8351 79.3138 95.9575 79.9292C96.0799 80.5446 96.3821 81.1098 96.8258 81.5535C97.2694 81.9971 97.8347 82.2993 98.45 82.4217C99.0654 82.5441 99.7034 82.4813 100.283 82.2412C100.863 82.0011 101.358 81.5944 101.707 81.0727C102.055 80.551 102.241 79.9377 102.241 79.3103C102.241 78.4689 101.907 77.662 101.312 77.0671C100.717 76.4721 99.9104 76.1379 99.069 76.1379Z" fill="#313131"/>
<path d="M99.069 101.517C98.4416 101.517 97.8282 101.703 97.3065 102.052C96.7848 102.4 96.3781 102.896 96.138 103.476C95.8979 104.055 95.8351 104.693 95.9575 105.308C96.0799 105.924 96.3821 106.489 96.8258 106.933C97.2694 107.376 97.8347 107.679 98.45 107.801C99.0654 107.923 99.7034 107.861 100.283 107.62C100.863 107.38 101.358 106.974 101.707 106.452C102.055 105.93 102.241 105.317 102.241 104.69C102.241 103.848 101.907 103.041 101.312 102.446C100.717 101.851 99.9104 101.517 99.069 101.517Z" fill="#313131"/>
<path d="M99.069 126.897C98.4416 126.897 97.8282 127.083 97.3065 127.431C96.7848 127.78 96.3781 128.275 96.138 128.855C95.8979 129.435 95.8351 130.073 95.9575 130.688C96.0799 131.303 96.3821 131.869 96.8258 132.312C97.2694 132.756 97.8347 133.058 98.45 133.181C99.0654 133.303 99.7034 133.24 100.283 133C100.863 132.76 101.358 132.353 101.707 131.832C102.055 131.31 102.241 130.696 102.241 130.069C102.241 129.228 101.907 128.421 101.312 127.826C100.717 127.231 99.9104 126.897 99.069 126.897Z" fill="#313131"/>
<path d="M99.069 152.276C98.4416 152.276 97.8282 152.462 97.3065 152.81C96.7848 153.159 96.3781 153.655 96.138 154.234C95.8979 154.814 95.8351 155.452 95.9575 156.067C96.0799 156.682 96.3821 157.248 96.8258 157.691C97.2694 158.135 97.8347 158.437 98.45 158.56C99.0654 158.682 99.7034 158.619 100.283 158.379C100.863 158.139 101.358 157.732 101.707 157.211C102.055 156.689 102.241 156.076 102.241 155.448C102.241 154.607 101.907 153.8 101.312 153.205C100.717 152.61 99.9104 152.276 99.069 152.276Z" fill="#313131"/>
<path d="M99.069 177.655C98.4416 177.655 97.8282 177.841 97.3065 178.19C96.7848 178.538 96.3781 179.034 96.138 179.614C95.8979 180.193 95.8351 180.831 95.9575 181.447C96.0799 182.062 96.3821 182.627 96.8258 183.071C97.2694 183.514 97.8347 183.817 98.45 183.939C99.0654 184.061 99.7034 183.999 100.283 183.759C100.863 183.518 101.358 183.112 101.707 182.59C102.055 182.068 102.241 181.455 102.241 180.828C102.241 179.986 101.907 179.179 101.312 178.584C100.717 177.989 99.9104 177.655 99.069 177.655Z" fill="#313131"/>
<path d="M124.448 0C123.821 0 123.208 0.186049 122.686 0.534633C122.164 0.883217 121.757 1.37866 121.517 1.95833C121.277 2.538 121.214 3.17588 121.337 3.79126C121.459 4.40663 121.761 4.97189 122.205 5.41555C122.649 5.85921 123.214 6.16136 123.829 6.28377C124.445 6.40617 125.083 6.34335 125.662 6.10324C126.242 5.86314 126.737 5.4565 127.086 4.93481C127.435 4.41312 127.621 3.7998 127.621 3.17236C127.621 2.331 127.287 1.52408 126.692 0.929145C126.097 0.334212 125.29 0 124.448 0Z" fill="#313131"/>
<path d="M124.448 25.3793C123.821 25.3793 123.208 25.5654 122.686 25.9139C122.164 26.2625 121.757 26.758 121.517 27.3376C121.277 27.9173 121.214 28.5552 121.337 29.1706C121.459 29.7859 121.761 30.3512 122.205 30.7949C122.649 31.2385 123.214 31.5407 123.829 31.6631C124.445 31.7855 125.083 31.7227 125.662 31.4826C126.242 31.2424 126.737 30.8358 127.086 30.3141C127.435 29.7924 127.621 29.1791 127.621 28.5517C127.621 27.7103 127.287 26.9034 126.692 26.3085C126.097 25.7135 125.29 25.3793 124.448 25.3793Z" fill="#313131"/>
<path d="M124.448 50.7586C123.821 50.7586 123.208 50.9447 122.686 51.2933C122.164 51.6419 121.757 52.1373 121.517 52.717C121.277 53.2967 121.214 53.9346 121.337 54.55C121.459 55.1654 121.761 55.7307 122.205 56.1744C122.649 56.6181 123.214 56.9202 123.829 57.0426C124.445 57.165 125.083 57.1022 125.662 56.8621C126.242 56.622 126.737 56.2153 127.086 55.6936C127.435 55.1719 127.621 54.5586 127.621 53.9311C127.621 53.0897 127.287 52.2828 126.692 51.6878C126.097 51.0928 125.29 50.7586 124.448 50.7586Z" fill="#313131"/>
<path d="M124.448 76.1379C123.821 76.1379 123.208 76.324 122.686 76.6726C122.164 77.0211 121.757 77.5166 121.517 78.0963C121.277 78.6759 121.214 79.3138 121.337 79.9292C121.459 80.5446 121.761 81.1098 122.205 81.5535C122.649 81.9971 123.214 82.2993 123.829 82.4217C124.445 82.5441 125.083 82.4813 125.662 82.2412C126.242 82.0011 126.737 81.5944 127.086 81.0727C127.435 80.551 127.621 79.9377 127.621 79.3103C127.621 78.4689 127.287 77.662 126.692 77.0671C126.097 76.4721 125.29 76.1379 124.448 76.1379Z" fill="#313131"/>
<path d="M124.448 101.517C123.821 101.517 123.208 101.703 122.686 102.052C122.164 102.4 121.757 102.896 121.517 103.476C121.277 104.055 121.214 104.693 121.337 105.308C121.459 105.924 121.761 106.489 122.205 106.933C122.649 107.376 123.214 107.679 123.829 107.801C124.445 107.923 125.083 107.861 125.662 107.62C126.242 107.38 126.737 106.974 127.086 106.452C127.435 105.93 127.621 105.317 127.621 104.69C127.621 103.848 127.287 103.041 126.692 102.446C126.097 101.851 125.29 101.517 124.448 101.517Z" fill="#313131"/>
<path d="M124.448 126.897C123.821 126.897 123.208 127.083 122.686 127.431C122.164 127.78 121.757 128.275 121.517 128.855C121.277 129.435 121.214 130.073 121.337 130.688C121.459 131.303 121.761 131.869 122.205 132.312C122.649 132.756 123.214 133.058 123.829 133.181C124.445 133.303 125.083 133.24 125.662 133C126.242 132.76 126.737 132.353 127.086 131.832C127.435 131.31 127.621 130.696 127.621 130.069C127.621 129.228 127.287 128.421 126.692 127.826C126.097 127.231 125.29 126.897 124.448 126.897Z" fill="#313131"/>
<path d="M124.448 152.276C123.821 152.276 123.208 152.462 122.686 152.81C122.164 153.159 121.757 153.655 121.517 154.234C121.277 154.814 121.214 155.452 121.337 156.067C121.459 156.682 121.761 157.248 122.205 157.691C122.649 158.135 123.214 158.437 123.829 158.56C124.445 158.682 125.083 158.619 125.662 158.379C126.242 158.139 126.737 157.732 127.086 157.211C127.435 156.689 127.621 156.076 127.621 155.448C127.621 154.607 127.287 153.8 126.692 153.205C126.097 152.61 125.29 152.276 124.448 152.276Z" fill="#313131"/>
<path d="M124.448 177.655C123.821 177.655 123.208 177.841 122.686 178.19C122.164 178.538 121.757 179.034 121.517 179.614C121.277 180.193 121.214 180.831 121.337 181.447C121.459 182.062 121.761 182.627 122.205 183.071C122.649 183.514 123.214 183.817 123.829 183.939C124.445 184.061 125.083 183.999 125.662 183.759C126.242 183.518 126.737 183.112 127.086 182.59C127.435 182.068 127.621 181.455 127.621 180.828C127.621 179.986 127.287 179.179 126.692 178.584C126.097 177.989 125.29 177.655 124.448 177.655Z" fill="#313131"/>
</svg>
