<svg width="91" height="184" viewBox="0 0 91 184" fill="none" xmlns="http://www.w3.org/2000/svg">
<path d="M3.17245 0C2.54501 0 1.93162 0.186049 1.40992 0.534633C0.888218 0.883217 0.481548 1.37866 0.241437 1.95833C0.0013252 2.538 -0.0614323 3.17588 0.0609754 3.79126C0.183383 4.40663 0.485535 4.97189 0.929203 5.41555C1.37287 5.85921 1.9381 6.16136 2.55348 6.28377C3.16887 6.40617 3.80681 6.34335 4.3865 6.10324C4.96618 5.86314 5.46159 5.4565 5.81018 4.93481C6.15877 4.41312 6.34485 3.7998 6.34485 3.17236C6.34485 2.331 6.01063 1.52408 5.41569 0.929145C4.82075 0.334212 4.01382 0 3.17245 0Z" fill="#313131"/>
<path d="M3.17245 25.3793C2.54501 25.3793 1.93162 25.5654 1.40992 25.914C0.888218 26.2626 0.481548 26.758 0.241437 27.3377C0.0013252 27.9173 -0.0614323 28.5552 0.0609754 29.1706C0.183383 29.786 0.485535 30.3512 0.929203 30.7949C1.37287 31.2385 1.9381 31.5407 2.55348 31.6631C3.16887 31.7855 3.80681 31.7227 4.3865 31.4826C4.96618 31.2425 5.46159 30.8358 5.81018 30.3141C6.15877 29.7925 6.34485 29.1791 6.34485 28.5517C6.34485 27.7103 6.01063 26.9034 5.41569 26.3085C4.82075 25.7135 4.01382 25.3793 3.17245 25.3793Z" fill="#313131"/>
<path d="M3.17245 50.7588C2.54501 50.7588 1.93162 50.9448 1.40992 51.2934C0.888218 51.642 0.481548 52.1374 0.241437 52.7171C0.0013252 53.2968 -0.0614323 53.9347 0.0609754 54.55C0.183383 55.1654 0.485535 55.7307 0.929203 56.1743C1.37287 56.618 1.9381 56.9202 2.55348 57.0426C3.16887 57.165 3.80681 57.1021 4.3865 56.862C4.96618 56.6219 5.46159 56.2153 5.81018 55.6936C6.15877 55.1719 6.34485 54.5586 6.34485 53.9312C6.34485 53.0898 6.01063 52.2829 5.41569 51.6879C4.82075 51.093 4.01382 50.7588 3.17245 50.7588Z" fill="#313131"/>
<path d="M3.17245 76.1377C2.54501 76.1377 1.93162 76.3238 1.40992 76.6724C0.888218 77.021 0.481548 77.5165 0.241437 78.0962C0.0013252 78.6759 -0.0614323 79.3138 0.0609754 79.9292C0.183383 80.5447 0.485535 81.11 0.929203 81.5537C1.37287 81.9974 1.9381 82.2995 2.55348 82.4219C3.16887 82.5444 3.80681 82.4815 4.3865 82.2414C4.96618 82.0013 5.46159 81.5946 5.81018 81.0729C6.15877 80.5512 6.34485 79.9378 6.34485 79.3103C6.34485 78.4689 6.01063 77.6619 5.41569 77.0669C4.82075 76.4719 4.01382 76.1377 3.17245 76.1377Z" fill="#313131"/>
<path d="M3.17245 101.517C2.54501 101.517 1.93162 101.703 1.40992 102.052C0.888218 102.4 0.481548 102.896 0.241437 103.476C0.0013252 104.055 -0.0614323 104.693 0.0609754 105.309C0.183383 105.924 0.485535 106.489 0.929203 106.933C1.37287 107.377 1.9381 107.679 2.55348 107.801C3.16887 107.924 3.80681 107.861 4.3865 107.621C4.96618 107.381 5.46159 106.974 5.81018 106.452C6.15877 105.931 6.34485 105.317 6.34485 104.69C6.34485 103.848 6.01063 103.041 5.41569 102.446C4.82075 101.851 4.01382 101.517 3.17245 101.517Z" fill="#313131"/>
<path d="M3.17245 126.897C2.54501 126.897 1.93162 127.083 1.40992 127.431C0.888218 127.78 0.481548 128.275 0.241437 128.855C0.0013252 129.435 -0.0614323 130.072 0.0609754 130.688C0.183383 131.303 0.485535 131.868 0.929203 132.312C1.37287 132.756 1.9381 133.058 2.55348 133.18C3.16887 133.303 3.80681 133.24 4.3865 133C4.96618 132.76 5.46159 132.353 5.81018 131.831C6.15877 131.31 6.34485 130.696 6.34485 130.069C6.34485 129.228 6.01063 128.421 5.41569 127.826C4.82075 127.231 4.01382 126.897 3.17245 126.897Z" fill="#313131"/>
<path d="M3.17245 152.276C2.54501 152.276 1.93162 152.462 1.40992 152.811C0.888218 153.159 0.481548 153.655 0.241437 154.234C0.0013252 154.814 -0.0614323 155.452 0.0609754 156.067C0.183383 156.683 0.485535 157.248 0.929203 157.691C1.37287 158.135 1.9381 158.437 2.55348 158.56C3.16887 158.682 3.80681 158.619 4.3865 158.379C4.96618 158.139 5.46159 157.732 5.81018 157.211C6.15877 156.689 6.34485 156.076 6.34485 155.448C6.34485 154.607 6.01063 153.8 5.41569 153.205C4.82075 152.61 4.01382 152.276 3.17245 152.276Z" fill="#313131"/>
<path d="M3.17245 177.655C2.54501 177.655 1.93162 177.841 1.40992 178.19C0.888218 178.538 0.481548 179.034 0.241437 179.614C0.0013252 180.193 -0.0614323 180.831 0.0609754 181.447C0.183383 182.062 0.485535 182.627 0.929203 183.071C1.37287 183.514 1.9381 183.817 2.55348 183.939C3.16887 184.061 3.80681 183.999 4.3865 183.759C4.96618 183.518 5.46159 183.112 5.81018 182.59C6.15877 182.068 6.34485 181.455 6.34485 180.828C6.34485 179.986 6.01063 179.179 5.41569 178.584C4.82075 177.989 4.01382 177.655 3.17245 177.655Z" fill="#313131"/>
<path d="M28.5518 0C27.9244 0 27.311 0.186049 26.7893 0.534633C26.2676 0.883217 25.8609 1.37866 25.6208 1.95833C25.3807 2.538 25.3179 3.17588 25.4403 3.79126C25.5627 4.40663 25.8649 4.97189 26.3086 5.41555C26.7522 5.85921 27.3175 6.16136 27.9329 6.28377C28.5483 6.40617 29.1862 6.34335 29.7659 6.10324C30.3456 5.86314 30.841 5.4565 31.1896 4.93481C31.5382 4.41312 31.7243 3.7998 31.7243 3.17236C31.7243 2.331 31.3901 1.52408 30.7951 0.929145C30.2002 0.334212 29.3932 0 28.5518 0Z" fill="#313131"/>
<path d="M28.5518 25.3793C27.9244 25.3793 27.311 25.5654 26.7893 25.914C26.2676 26.2626 25.8609 26.758 25.6208 27.3377C25.3807 27.9173 25.3179 28.5552 25.4403 29.1706C25.5627 29.786 25.8649 30.3512 26.3086 30.7949C26.7522 31.2385 27.3175 31.5407 27.9329 31.6631C28.5483 31.7855 29.1862 31.7227 29.7659 31.4826C30.3456 31.2425 30.841 30.8358 31.1896 30.3141C31.5382 29.7925 31.7243 29.1791 31.7243 28.5517C31.7243 27.7103 31.3901 26.9034 30.7951 26.3085C30.2002 25.7135 29.3932 25.3793 28.5518 25.3793Z" fill="#313131"/>
<path d="M28.5518 50.7588C27.9243 50.7588 27.3109 50.9448 26.7892 51.2934C26.2675 51.642 25.8608 52.1374 25.6207 52.7171C25.3806 53.2968 25.3178 53.9347 25.4402 54.55C25.5627 55.1654 25.8648 55.7307 26.3085 56.1743C26.7522 56.618 27.3174 56.9202 27.9328 57.0426C28.5482 57.165 29.1862 57.1021 29.7659 56.862C30.3455 56.6219 30.841 56.2153 31.1896 55.6936C31.5382 55.1719 31.7242 54.5586 31.7242 53.9312C31.7242 53.0898 31.39 52.2829 30.7951 51.6879C30.2001 51.093 29.3932 50.7588 28.5518 50.7588Z" fill="#313131"/>
<path d="M28.5518 76.1377C27.9243 76.1377 27.3109 76.3238 26.7892 76.6724C26.2675 77.021 25.8608 77.5165 25.6207 78.0962C25.3806 78.6759 25.3178 79.3138 25.4402 79.9292C25.5627 80.5447 25.8648 81.11 26.3085 81.5537C26.7522 81.9974 27.3174 82.2995 27.9328 82.4219C28.5482 82.5444 29.1862 82.4815 29.7659 82.2414C30.3455 82.0013 30.841 81.5946 31.1896 81.0729C31.5382 80.5512 31.7242 79.9378 31.7242 79.3103C31.7242 78.4689 31.39 77.6619 30.7951 77.0669C30.2001 76.4719 29.3932 76.1377 28.5518 76.1377Z" fill="#313131"/>
<path d="M28.5518 101.517C27.9243 101.517 27.3109 101.703 26.7892 102.052C26.2675 102.4 25.8608 102.896 25.6207 103.476C25.3806 104.055 25.3178 104.693 25.4402 105.309C25.5627 105.924 25.8648 106.489 26.3085 106.933C26.7522 107.377 27.3174 107.679 27.9328 107.801C28.5482 107.924 29.1862 107.861 29.7659 107.621C30.3455 107.381 30.841 106.974 31.1896 106.452C31.5382 105.931 31.7242 105.317 31.7242 104.69C31.7242 103.848 31.39 103.041 30.7951 102.446C30.2001 101.851 29.3932 101.517 28.5518 101.517Z" fill="#313131"/>
<path d="M28.5518 126.897C27.9244 126.897 27.311 127.083 26.7893 127.431C26.2676 127.78 25.8609 128.275 25.6208 128.855C25.3807 129.435 25.3179 130.072 25.4403 130.688C25.5627 131.303 25.8649 131.868 26.3086 132.312C26.7522 132.756 27.3175 133.058 27.9329 133.18C28.5483 133.303 29.1862 133.24 29.7659 133C30.3456 132.76 30.841 132.353 31.1896 131.831C31.5382 131.31 31.7243 130.696 31.7243 130.069C31.7243 129.228 31.3901 128.421 30.7951 127.826C30.2002 127.231 29.3932 126.897 28.5518 126.897Z" fill="#313131"/>
<path d="M28.5518 152.276C27.9244 152.276 27.311 152.462 26.7893 152.811C26.2676 153.159 25.8609 153.655 25.6208 154.234C25.3807 154.814 25.3179 155.452 25.4403 156.067C25.5627 156.683 25.8649 157.248 26.3086 157.691C26.7522 158.135 27.3175 158.437 27.9329 158.56C28.5483 158.682 29.1862 158.619 29.7659 158.379C30.3456 158.139 30.841 157.732 31.1896 157.211C31.5382 156.689 31.7243 156.076 31.7243 155.448C31.7243 154.607 31.3901 153.8 30.7951 153.205C30.2002 152.61 29.3932 152.276 28.5518 152.276Z" fill="#313131"/>
<path d="M28.5518 177.655C27.9243 177.655 27.3109 177.841 26.7892 178.19C26.2675 178.538 25.8608 179.034 25.6207 179.614C25.3806 180.193 25.3178 180.831 25.4402 181.447C25.5627 182.062 25.8648 182.627 26.3085 183.071C26.7522 183.514 27.3174 183.817 27.9328 183.939C28.5482 184.061 29.1862 183.999 29.7659 183.759C30.3455 183.518 30.841 183.112 31.1896 182.59C31.5382 182.068 31.7242 181.455 31.7242 180.828C31.7242 179.986 31.39 179.179 30.7951 178.584C30.2001 177.989 29.3932 177.655 28.5518 177.655Z" fill="#313131"/>
<path d="M53.9311 0C53.3036 0 52.6902 0.186049 52.1685 0.534633C51.6468 0.883217 51.2402 1.37866 51 1.95833C50.7599 2.538 50.6972 3.17588 50.8196 3.79126C50.942 4.40663 51.2441 4.97189 51.6878 5.41555C52.1315 5.85921 52.6967 6.16136 53.3121 6.28377C53.9275 6.40617 54.5654 6.34335 55.1451 6.10324C55.7248 5.86314 56.2202 5.4565 56.5688 4.93481C56.9174 4.41312 57.1035 3.7998 57.1035 3.17236C57.1035 2.331 56.7692 1.52408 56.1743 0.929145C55.5794 0.334212 54.7724 0 53.9311 0Z" fill="#313131"/>
<path d="M53.9311 25.3793C53.3036 25.3793 52.6902 25.5654 52.1685 25.914C51.6468 26.2626 51.2402 26.758 51 27.3377C50.7599 27.9173 50.6972 28.5552 50.8196 29.1706C50.942 29.786 51.2441 30.3512 51.6878 30.7949C52.1315 31.2385 52.6967 31.5407 53.3121 31.6631C53.9275 31.7855 54.5654 31.7227 55.1451 31.4826C55.7248 31.2425 56.2202 30.8358 56.5688 30.3141C56.9174 29.7925 57.1035 29.1791 57.1035 28.5517C57.1035 27.7103 56.7692 26.9034 56.1743 26.3085C55.5794 25.7135 54.7724 25.3793 53.9311 25.3793Z" fill="#313131"/>
<path d="M53.9311 50.7588C53.3037 50.7588 52.6903 50.9448 52.1686 51.2934C51.6469 51.642 51.2402 52.1374 51.0001 52.7171C50.76 53.2968 50.6972 53.9347 50.8196 54.55C50.9421 55.1654 51.2442 55.7307 51.6879 56.1743C52.1315 56.618 52.6968 56.9202 53.3122 57.0426C53.9275 57.165 54.5655 57.1021 55.1452 56.862C55.7248 56.6219 56.2203 56.2153 56.5688 55.6936C56.9174 55.1719 57.1035 54.5586 57.1035 53.9312C57.1035 53.0898 56.7693 52.2829 56.1744 51.6879C55.5794 51.093 54.7725 50.7588 53.9311 50.7588Z" fill="#313131"/>
<path d="M53.9311 76.1377C53.3037 76.1377 52.6903 76.3238 52.1686 76.6724C51.6469 77.021 51.2402 77.5165 51.0001 78.0962C50.76 78.6759 50.6972 79.3138 50.8196 79.9292C50.9421 80.5447 51.2442 81.11 51.6879 81.5537C52.1315 81.9974 52.6968 82.2995 53.3122 82.4219C53.9275 82.5444 54.5655 82.4815 55.1452 82.2414C55.7248 82.0013 56.2203 81.5946 56.5688 81.0729C56.9174 80.5512 57.1035 79.9378 57.1035 79.3103C57.1035 78.4689 56.7693 77.6619 56.1744 77.0669C55.5794 76.4719 54.7725 76.1377 53.9311 76.1377Z" fill="#313131"/>
<path d="M53.9311 101.517C53.3037 101.517 52.6903 101.703 52.1686 102.052C51.6469 102.4 51.2402 102.896 51.0001 103.476C50.76 104.055 50.6972 104.693 50.8196 105.309C50.9421 105.924 51.2442 106.489 51.6879 106.933C52.1315 107.377 52.6968 107.679 53.3122 107.801C53.9275 107.924 54.5655 107.861 55.1452 107.621C55.7248 107.381 56.2203 106.974 56.5688 106.452C56.9174 105.931 57.1035 105.317 57.1035 104.69C57.1035 103.848 56.7693 103.041 56.1744 102.446C55.5794 101.851 54.7725 101.517 53.9311 101.517Z" fill="#313131"/>
<path d="M53.9311 126.897C53.3036 126.897 52.6902 127.083 52.1685 127.431C51.6468 127.78 51.2402 128.275 51 128.855C50.7599 129.435 50.6972 130.072 50.8196 130.688C50.942 131.303 51.2441 131.868 51.6878 132.312C52.1315 132.756 52.6967 133.058 53.3121 133.18C53.9275 133.303 54.5654 133.24 55.1451 133C55.7248 132.76 56.2202 132.353 56.5688 131.831C56.9174 131.31 57.1035 130.696 57.1035 130.069C57.1035 129.228 56.7692 128.421 56.1743 127.826C55.5794 127.231 54.7724 126.897 53.9311 126.897Z" fill="#313131"/>
<path d="M53.9311 152.276C53.3036 152.276 52.6902 152.462 52.1685 152.811C51.6468 153.159 51.2402 153.655 51 154.234C50.7599 154.814 50.6972 155.452 50.8196 156.067C50.942 156.683 51.2441 157.248 51.6878 157.691C52.1315 158.135 52.6967 158.437 53.3121 158.56C53.9275 158.682 54.5654 158.619 55.1451 158.379C55.7248 158.139 56.2202 157.732 56.5688 157.211C56.9174 156.689 57.1035 156.076 57.1035 155.448C57.1035 154.607 56.7692 153.8 56.1743 153.205C55.5794 152.61 54.7724 152.276 53.9311 152.276Z" fill="#313131"/>
<path d="M53.9311 177.655C53.3037 177.655 52.6903 177.841 52.1686 178.19C51.6469 178.538 51.2402 179.034 51.0001 179.614C50.76 180.193 50.6972 180.831 50.8196 181.447C50.9421 182.062 51.2442 182.627 51.6879 183.071C52.1315 183.514 52.6968 183.817 53.3122 183.939C53.9275 184.061 54.5655 183.999 55.1452 183.759C55.7248 183.518 56.2203 183.112 56.5688 182.59C56.9174 182.068 57.1035 181.455 57.1035 180.828C57.1035 179.986 56.7693 179.179 56.1744 178.584C55.5794 177.989 54.7725 177.655 53.9311 177.655Z" fill="#313131"/>
<path d="M79.3104 0C78.6829 0 78.0696 0.186049 77.5479 0.534633C77.0262 0.883217 76.6195 1.37866 76.3794 1.95833C76.1393 2.538 76.0765 3.17588 76.1989 3.79126C76.3213 4.40663 76.6235 4.97189 77.0671 5.41555C77.5108 5.85921 78.076 6.16136 78.6914 6.28377C79.3068 6.40617 79.9448 6.34335 80.5244 6.10324C81.1041 5.86314 81.5995 5.4565 81.9481 4.93481C82.2967 4.41312 82.4828 3.7998 82.4828 3.17236C82.4828 2.331 82.1486 1.52408 81.5536 0.929145C80.9587 0.334212 80.1518 0 79.3104 0Z" fill="#313131"/>
<path d="M79.3104 25.3793C78.6829 25.3793 78.0696 25.5654 77.5479 25.914C77.0262 26.2626 76.6195 26.758 76.3794 27.3377C76.1393 27.9173 76.0765 28.5552 76.1989 29.1706C76.3213 29.786 76.6235 30.3512 77.0671 30.7949C77.5108 31.2385 78.076 31.5407 78.6914 31.6631C79.3068 31.7855 79.9448 31.7227 80.5244 31.4826C81.1041 31.2425 81.5995 30.8358 81.9481 30.3141C82.2967 29.7925 82.4828 29.1791 82.4828 28.5517C82.4828 27.7103 82.1486 26.9034 81.5536 26.3085C80.9587 25.7135 80.1518 25.3793 79.3104 25.3793Z" fill="#313131"/>
<path d="M79.3104 50.7588C78.6829 50.7588 78.0696 50.9448 77.5479 51.2934C77.0262 51.642 76.6195 52.1374 76.3794 52.7171C76.1393 53.2968 76.0765 53.9347 76.1989 54.55C76.3213 55.1654 76.6235 55.7307 77.0671 56.1743C77.5108 56.618 78.076 56.9202 78.6914 57.0426C79.3068 57.165 79.9448 57.1021 80.5244 56.862C81.1041 56.6219 81.5995 56.2153 81.9481 55.6936C82.2967 55.1719 82.4828 54.5586 82.4828 53.9312C82.4828 53.0898 82.1486 52.2829 81.5536 51.6879C80.9587 51.093 80.1518 50.7588 79.3104 50.7588Z" fill="#313131"/>
<path d="M79.3104 76.1377C78.6829 76.1377 78.0696 76.3238 77.5479 76.6724C77.0262 77.021 76.6195 77.5165 76.3794 78.0962C76.1393 78.6759 76.0765 79.3138 76.1989 79.9292C76.3213 80.5447 76.6235 81.11 77.0671 81.5537C77.5108 81.9974 78.076 82.2995 78.6914 82.4219C79.3068 82.5444 79.9448 82.4815 80.5244 82.2414C81.1041 82.0013 81.5995 81.5946 81.9481 81.0729C82.2967 80.5512 82.4828 79.9378 82.4828 79.3103C82.4828 78.4689 82.1486 77.6619 81.5536 77.0669C80.9587 76.4719 80.1518 76.1377 79.3104 76.1377Z" fill="#313131"/>
<path d="M79.3104 101.517C78.6829 101.517 78.0696 101.703 77.5479 102.052C77.0262 102.4 76.6195 102.896 76.3794 103.476C76.1393 104.055 76.0765 104.693 76.1989 105.309C76.3213 105.924 76.6235 106.489 77.0671 106.933C77.5108 107.377 78.076 107.679 78.6914 107.801C79.3068 107.924 79.9448 107.861 80.5244 107.621C81.1041 107.381 81.5995 106.974 81.9481 106.452C82.2967 105.931 82.4828 105.317 82.4828 104.69C82.4828 103.848 82.1486 103.041 81.5536 102.446C80.9587 101.851 80.1518 101.517 79.3104 101.517Z" fill="#313131"/>
<path d="M79.3104 126.897C78.6829 126.897 78.0696 127.083 77.5479 127.431C77.0262 127.78 76.6195 128.275 76.3794 128.855C76.1393 129.435 76.0765 130.072 76.1989 130.688C76.3213 131.303 76.6235 131.868 77.0671 132.312C77.5108 132.756 78.076 133.058 78.6914 133.18C79.3068 133.303 79.9448 133.24 80.5244 133C81.1041 132.76 81.5995 132.353 81.9481 131.831C82.2967 131.31 82.4828 130.696 82.4828 130.069C82.4828 129.228 82.1486 128.421 81.5536 127.826C80.9587 127.231 80.1518 126.897 79.3104 126.897Z" fill="#313131"/>
<path d="M79.3104 152.276C78.6829 152.276 78.0696 152.462 77.5479 152.811C77.0262 153.159 76.6195 153.655 76.3794 154.234C76.1393 154.814 76.0765 155.452 76.1989 156.067C76.3213 156.683 76.6235 157.248 77.0671 157.691C77.5108 158.135 78.076 158.437 78.6914 158.56C79.3068 158.682 79.9448 158.619 80.5244 158.379C81.1041 158.139 81.5995 157.732 81.9481 157.211C82.2967 156.689 82.4828 156.076 82.4828 155.448C82.4828 154.607 82.1486 153.8 81.5536 153.205C80.9587 152.61 80.1518 152.276 79.3104 152.276Z" fill="#313131"/>
<path d="M79.3104 177.655C78.6829 177.655 78.0696 177.841 77.5479 178.19C77.0262 178.538 76.6195 179.034 76.3794 179.614C76.1393 180.193 76.0765 180.831 76.1989 181.447C76.3213 182.062 76.6235 182.627 77.0671 183.071C77.5108 183.514 78.076 183.817 78.6914 183.939C79.3068 184.061 79.9448 183.999 80.5244 183.759C81.1041 183.518 81.5995 183.112 81.9481 182.59C82.2967 182.068 82.4828 181.455 82.4828 180.828C82.4828 179.986 82.1486 179.179 81.5536 178.584C80.9587 177.989 80.1518 177.655 79.3104 177.655Z" fill="#313131"/>
</svg>
